<mxfile host="65bd71144e">
    <diagram id="fAgdNUF92rByVuBHBstE" name="Page-1">
        <mxGraphModel dx="1216" dy="779" grid="1" gridSize="10" guides="1" tooltips="1" connect="1" arrows="1" fold="1" page="1" pageScale="1" pageWidth="850" pageHeight="1100" math="0" shadow="0">
            <root>
                <mxCell id="0"/>
                <mxCell id="1" parent="0"/>
                <mxCell id="17" value="" style="group" vertex="1" connectable="0" parent="1">
                    <mxGeometry x="230" y="230" width="445" height="445" as="geometry"/>
                </mxCell>
                <mxCell id="6" value="" style="group" vertex="1" connectable="0" parent="17">
                    <mxGeometry width="445" height="445" as="geometry"/>
                </mxCell>
                <mxCell id="18" value="" style="group" vertex="1" connectable="0" parent="6">
                    <mxGeometry x="-135" y="-135" width="580" height="580" as="geometry"/>
                </mxCell>
                <mxCell id="5" value="" style="ellipse;whiteSpace=wrap;html=1;aspect=fixed;fontFamily=Comic Sans MS;fontSize=24;fillColor=#f8cecc;strokeColor=#b85450;" vertex="1" parent="18">
                    <mxGeometry width="580" height="580" as="geometry"/>
                </mxCell>
                <mxCell id="3" value="&lt;h1&gt;&lt;br&gt;&lt;/h1&gt;" style="ellipse;whiteSpace=wrap;html=1;aspect=fixed;fillColor=#dae8fc;strokeColor=#6c8ebf;" vertex="1" parent="18">
                    <mxGeometry x="135" y="135" width="310" height="310" as="geometry"/>
                </mxCell>
                <mxCell id="2" value="&lt;h1&gt;&lt;font color=&quot;#000000&quot; face=&quot;Comic Sans MS&quot;&gt;Entity&lt;/font&gt;&lt;/h1&gt;" style="ellipse;whiteSpace=wrap;html=1;aspect=fixed;fillColor=#ffe6cc;strokeColor=#d79b00;" vertex="1" parent="18">
                    <mxGeometry x="235" y="235" width="110" height="110" as="geometry"/>
                </mxCell>
                <mxCell id="4" value="&lt;font style=&quot;font-size: 24px;&quot;&gt;UseCase&lt;/font&gt;" style="text;html=1;strokeColor=none;fillColor=none;align=center;verticalAlign=middle;whiteSpace=wrap;rounded=0;fontFamily=Comic Sans MS;fontColor=#000000;fontStyle=1" vertex="1" parent="18">
                    <mxGeometry x="260" y="385" width="60" height="30" as="geometry"/>
                </mxCell>
                <mxCell id="10" value="OutPort" style="rounded=1;whiteSpace=wrap;html=1;fontFamily=Comic Sans MS;fontSize=24;fontColor=#333333;fillColor=#f5f5f5;strokeColor=#666666;" vertex="1" parent="18">
                    <mxGeometry x="375" y="175" width="110" height="40" as="geometry"/>
                </mxCell>
                <mxCell id="11" value="InPort" style="rounded=1;whiteSpace=wrap;html=1;fontFamily=Comic Sans MS;fontSize=24;fontColor=#333333;fillColor=#f5f5f5;strokeColor=#666666;" vertex="1" parent="18">
                    <mxGeometry x="105" y="175" width="100" height="40" as="geometry"/>
                </mxCell>
                <mxCell id="13" value="" style="endArrow=none;html=1;fontFamily=Comic Sans MS;fontSize=24;fontColor=#000000;entryX=0.5;entryY=0;entryDx=0;entryDy=0;exitX=0.5;exitY=1;exitDx=0;exitDy=0;strokeWidth=5;strokeColor=#000000;" edge="1" parent="18" source="5" target="5">
                    <mxGeometry width="50" height="50" relative="1" as="geometry">
                        <mxPoint x="405" y="345" as="sourcePoint"/>
                        <mxPoint x="455" y="295" as="targetPoint"/>
                    </mxGeometry>
                </mxCell>
                <mxCell id="7" value="Adapter" style="text;strokeColor=none;fillColor=none;html=1;fontSize=24;fontStyle=1;verticalAlign=middle;align=center;fontFamily=Comic Sans MS;fontColor=#000000;" vertex="1" parent="17">
                    <mxGeometry x="105" y="340" width="100" height="40" as="geometry"/>
                </mxCell>
            </root>
        </mxGraphModel>
    </diagram>
</mxfile>